<svg xmlns="http://www.w3.org/2000/svg" viewBox="0 0 250.45 250.46"><defs><style>.cls-1{font-size:27.55px;fill:#fff;font-family:NotoSansCJKkr-Medium-KSCpc-EUC-H, Noto Sans CJK KR;}</style></defs><g id="레이어_2" data-name="레이어 2"><g id="레이어_1-2" data-name="레이어 1"><text class="cls-1" transform="translate(104.65 25.81) rotate(-5.87)">H</text><text class="cls-1" transform="translate(124.34 24.16) rotate(1.7)">i</text><text class="cls-1" transform="translate(131.86 24.33) rotate(6.36)">!</text><text class="cls-1" transform="translate(140.88 25.39) rotate(10.6)"> </text><text class="cls-1" transform="translate(146.66 26.42) rotate(14.61)">I</text><text class="cls-1" transform="translate(154.58 28.51) rotate(18.63)"> </text><text class="cls-1" transform="translate(160.09 30.07) rotate(24.63)">a</text><text class="cls-1" transform="translate(173.97 35.8) rotate(35.95)">m</text><text class="cls-1" transform="translate(193.97 51.16) rotate(44.62)"> </text><text class="cls-1" transform="translate(198.23 55) rotate(50.43)">L</text><text class="cls-1" transform="translate(207.64 66.28) rotate(58.85)">a</text><text class="cls-1" transform="translate(215.47 79.31) rotate(66.82)">z</text><text class="cls-1" transform="translate(220.57 90.96) rotate(74.5)">y</text><text class="cls-1" transform="matrix(0.17, 0.99, -0.99, 0.17, 224.25, 104.98)"> </text><text class="cls-1" transform="translate(225.49 110.56) rotate(86.21)">a</text><text class="cls-1" transform="matrix(-0.09, 1, -1, -0.09, 226.6, 125.68)">n</text><text class="cls-1" transform="translate(225.22 142.07) rotate(104.43)">d</text><text class="cls-1" transform="translate(220.76 158.27) rotate(110.85)"> </text><text class="cls-1" transform="matrix(-0.46, 0.89, -0.89, -0.46, 219.07, 163.72)">C</text><text class="cls-1" transform="matrix(-0.58, 0.82, -0.82, -0.58, 211.03, 178.85)">r</text><text class="cls-1" transform="matrix(-0.67, 0.74, -0.74, -0.67, 205.19, 187.44)">e</text><text class="cls-1" transform="matrix(-0.77, 0.64, -0.64, -0.77, 195.48, 198.23)">a</text><text class="cls-1" transform="translate(184.02 207.55) rotate(147.51)">t</text><text class="cls-1" transform="matrix(-0.89, 0.46, -0.46, -0.89, 175.13, 213.15)">i</text><text class="cls-1" transform="translate(168.66 216.76) rotate(158.85)">v</text><text class="cls-1" transform="matrix(-0.97, 0.22, -0.22, -0.97, 155.46, 221.95)">e</text><text class="cls-1" transform="matrix(-0.99, 0.12, -0.12, -0.99, 140.74, 225.1)"> </text><text class="cls-1" transform="translate(135.23 226.07) rotate(179.07)">D</text><text class="cls-1" transform="matrix(-0.99, -0.16, 0.16, -0.99, 116.66, 226.17)">e</text><text class="cls-1" transform="translate(101.95 223.82) rotate(-162.48)">v</text><text class="cls-1" transform="matrix(-0.9, -0.43, 0.43, -0.9, 88.39, 219.62)">e</text><text class="cls-1" transform="matrix(-0.85, -0.53, 0.53, -0.85, 74.94, 212.94)">l</text><text class="cls-1" transform="translate(68.3 209.09) rotate(-141)">o</text><text class="cls-1" transform="translate(55.67 198.96) rotate(-131.78)">p</text><text class="cls-1" transform="translate(44.6 186.55) rotate(-122.9)">e</text><text class="cls-1" transform="translate(36.55 173.93) rotate(-115.62)">r</text><text class="cls-1" transform="translate(31.93 164.08) rotate(-110.86)"> </text><text class="cls-1" transform="translate(29.65 158.83) rotate(-105.02)">Y</text><text class="cls-1" transform="translate(25.79 144.8) rotate(-96.39)">E</text><text class="cls-1" transform="translate(23.79 129.19) rotate(-86.42)">O</text><text class="cls-1" transform="matrix(0.25, -0.97, 0.97, 0.25, 24.97, 109.31)">N</text><text class="cls-1" transform="translate(30.34 90.45) rotate(-68.09)"> </text><text class="cls-1" transform="matrix(0.5, -0.86, 0.86, 0.5, 31.75, 85)">W</text><text class="cls-1" transform="matrix(0.67, -0.74, 0.74, 0.67, 43.68, 64.75)">O</text><text class="cls-1" transform="matrix(0.81, -0.59, 0.59, 0.81, 57.05, 50)">O</text></g></g></svg>